<svg width="159px" height="23px" viewBox="0 0 159 23" version="1.1" xmlns="http://www.w3.org/2000/svg" xmlns:xlink="http://www.w3.org/1999/xlink">
    <!-- Generator: Sketch 45.1 (43504) - http://www.bohemiancoding.com/sketch -->
    <desc>Created with Sketch.</desc>
    <defs></defs>
    <g id="Logo" stroke="none" stroke-width="1" fill="none" fill-rule="evenodd">
        <g id="Logo-GenotBijoux" fill="#322356">
            <path d="M18.96,8.6885 C18.912,11.9525 18.184,14.5045 16.776,16.3445 C15.192,18.4405 12.816,19.4885 9.648,19.4885 C6.8,19.4885 4.48,18.5925 2.688,16.8005 C0.896,15.0085 0,12.6885 0,9.8405 C0,6.9125 0.904,4.5415 2.712,2.7245 C4.52,0.9085 6.888,0.0005 9.816,0.0005 C11.656,0.0005 13.284,0.4365 14.7,1.3085 C16.116,2.1805 17.208,3.4485 17.976,5.1125 L13.512,7.0085 C13.192,6.1215 12.688,5.4125 12,4.8785 C11.312,4.3465 10.512,4.0805 9.6,4.0805 C8.144,4.0805 6.976,4.6975 6.096,5.9325 C5.296,7.0395 4.896,8.3455 4.896,9.8525 C4.896,11.3765 5.304,12.6825 6.12,13.7725 C7.032,14.9915 8.216,15.6005 9.672,15.6005 C10.712,15.6005 11.58,15.3205 12.276,14.7605 C12.972,14.2005 13.368,13.4165 13.464,12.4085 L9.624,12.4085 L9.624,8.6885 L18.96,8.6885 Z" id="Fill-1"></path>
            <polygon id="Fill-3" points="31.1763 18.8887 20.8803 18.8887 20.8803 0.6007 31.1763 0.6007 31.1763 4.6327 25.6083 4.6327 25.6083 7.6807 30.8883 7.6807 30.8883 11.7127 25.6083 11.7127 25.6083 14.8567 31.1763 14.8567"></polygon>
            <polygon id="Fill-5" points="52.1279 18.8887 47.4499 18.8887 38.8229 7.6507 38.7839 7.6807 38.7839 18.8887 34.0559 18.8887 34.0559 0.6007 38.7839 0.6007 47.3999 11.7847 47.3999 0.6007 52.1279 0.6007"></polygon>
            <path d="M69.3354,9.4326 C69.3354,8.1046 68.8154,6.9686 67.7754,6.0246 C66.7354,5.0796 65.5524,4.6086 64.2244,4.6086 C62.8794,4.6086 61.6914,5.0796 60.6594,6.0246 C59.6274,6.9686 59.1114,8.1046 59.1114,9.4326 C59.1114,10.9206 59.5914,12.2006 60.5514,13.2726 C61.5114,14.3446 62.7354,14.8806 64.2244,14.8806 C65.6954,14.8806 66.9154,14.3446 67.8844,13.2726 C68.8524,12.2006 69.3354,10.9206 69.3354,9.4326 M74.2314,9.4086 C74.2314,12.3366 73.2914,14.7476 71.4114,16.6446 C69.5314,18.5396 67.1364,19.4886 64.2244,19.4886 C61.2954,19.4886 58.8954,18.5396 57.0234,16.6446 C55.1514,14.7476 54.2154,12.3366 54.2154,9.4086 C54.2154,6.7526 55.2234,4.5046 57.2394,2.6636 C59.1914,0.8886 61.5194,-0.0004 64.2244,-0.0004 C66.9114,-0.0004 69.2314,0.8886 71.1844,2.6636 C73.2154,4.5046 74.2314,6.7526 74.2314,9.4086" id="Fill-7"></path>
            <polygon id="Fill-9" points="87.7202 4.6328 83.8562 4.6328 83.8562 18.8888 79.1272 18.8888 79.1272 4.6328 75.2402 4.6328 75.2402 0.6008 87.7202 0.6008"></polygon>
            <path d="M98.5913,13.8476 C98.5913,12.3026 97.9833,11.2246 96.7673,10.6126 C95.8873,10.1776 94.5993,9.9596 92.9043,9.9596 L90.3593,9.9596 L90.3593,17.8316 L93.3833,17.8316 C94.8713,17.8316 96.0633,17.5586 96.9593,17.0116 C98.0473,16.3196 98.5913,15.2646 98.5913,13.8476 M96.9353,5.2806 C96.9353,2.8966 95.4793,1.7036 92.5673,1.7036 L90.3593,1.7036 L90.3593,8.9046 L92.9273,8.9046 C95.5993,8.9046 96.9353,7.6966 96.9353,5.2806 M99.7433,13.8006 C99.7433,15.4486 99.1583,16.7286 97.9913,17.6406 C96.9193,18.4726 95.5343,18.8886 93.8393,18.8886 L89.2073,18.8886 L89.2073,0.6006 L92.8313,0.6006 C96.3353,0.6006 98.0873,2.2166 98.0873,5.4486 C98.0873,7.1606 97.3913,8.4086 95.9993,9.1926 C97.1183,9.4166 98.0233,9.9566 98.7113,10.8126 C99.3993,11.6686 99.7433,12.6646 99.7433,13.8006" id="Fill-11"></path>
            <polygon id="Fill-13" points="102.456 18.8885 103.607 18.8885 103.607 0.6005 102.456 0.6005"></polygon>
            <path d="M109.1265,18.5527 C109.1265,21.3367 108.0635,22.7287 105.9355,22.7287 C105.2945,22.7287 104.7025,22.5437 104.1585,22.1767 C103.6145,21.8087 103.2065,21.3277 102.9355,20.7367 L103.7995,20.0647 C104.2785,21.1047 105.0225,21.6237 106.0305,21.6237 C107.3265,21.6237 107.9755,20.6007 107.9755,18.5527 L107.9755,0.6007 L109.1265,0.6007 L109.1265,18.5527 Z" id="Fill-15"></path>
            <path d="M129.3345,9.7568 C129.3345,7.5128 128.5225,5.5698 126.8975,3.9278 C125.2735,2.2858 123.3425,1.4648 121.1025,1.4648 C118.8465,1.4648 116.9095,2.2818 115.2945,3.9158 C113.6785,5.5508 112.8705,7.4968 112.8705,9.7568 C112.8705,12.0158 113.6785,13.9668 115.2945,15.6098 C116.9095,17.2518 118.8465,18.0718 121.1025,18.0718 C123.3255,18.0718 125.2545,17.2468 126.8865,15.5968 C128.5185,13.9458 129.3345,11.9998 129.3345,9.7568 M130.4855,9.7438 C130.4855,12.2878 129.5585,14.4878 127.7025,16.3448 C125.8465,18.1998 123.6465,19.1288 121.1025,19.1288 C118.5425,19.1288 116.3385,18.1998 114.4895,16.3448 C112.6425,14.4878 111.7185,12.2878 111.7185,9.7438 C111.7185,7.1848 112.6425,4.9808 114.4895,3.1328 C116.3385,1.2838 118.5425,0.3608 121.1025,0.3608 C123.6465,0.3608 125.8465,1.2878 127.7025,3.1448 C129.5585,5.0008 130.4855,7.1998 130.4855,9.7438" id="Fill-16"></path>
            <path d="M145.1499,0.6006 L145.1499,12.3606 C145.1499,14.4566 144.6709,16.0796 143.7099,17.2326 C142.6699,18.4966 141.1099,19.1286 139.0299,19.1286 C136.9339,19.1286 135.3659,18.4966 134.3259,17.2326 C133.3659,16.0796 132.8859,14.4566 132.8859,12.3606 L132.8859,0.6006 L134.0379,0.6006 L134.0379,11.6796 C134.0379,13.7146 134.3419,15.2206 134.9529,16.1986 C135.7219,17.4476 137.0859,18.0726 139.0419,18.0726 C140.9829,18.0726 142.3369,17.4476 143.1079,16.1986 C143.7329,15.2206 144.0459,13.7146 144.0459,11.6796 L144.0459,0.6006 L145.1499,0.6006 Z" id="Fill-17"></path>
            <polygon id="Fill-18" points="158.4937 18.8887 157.2167 18.8887 152.8217 10.6297 148.4377 18.8887 147.2137 18.8887 152.1627 9.5727 147.4017 0.6007 148.6777 0.6007 152.8307 8.4737 156.9817 0.6007 158.2607 0.6007 153.5297 9.5597"></polygon>
        </g>
    </g>
</svg>